<?xml version="1.0" encoding="utf-8"?>
<!-- Generator: Adobe Illustrator 22.1.0, SVG Export Plug-In . SVG Version: 6.00 Build 0)  -->
<svg version="1.1" id="Layer_1" xmlns="http://www.w3.org/2000/svg" xmlns:xlink="http://www.w3.org/1999/xlink" x="0px" y="0px"
	 viewBox="0 0 395.7 395.2" style="enable-background:new 0 0 395.7 395.2;" xml:space="preserve">
<path d="M225.7,286.2c-5.6,18.7,2,34.6,15.9,48.9c6.2,6.4,11.1,14.1,16.8,21.1c6.3,7.7,4.3,16.4,3.3,24.9c-0.4,3.7-3.9,3.1-6.4,1.9
	c-6.9-3.4-13.6-7-20.4-10.5c-4.1-2.2-8.1-4.6-12.3-6.6c-2.7-1.2-5.6-2-8.6-2.4c-4.5-0.5-6.9,1.7-7.7,6.4c-1,5.4-2.5,10.6-4.3,15.8
	c-0.6,1.6-2.6,3.7-4,3.7c-1.4,0-3.5-2.1-4.1-3.7c-1.7-4.6-3.2-9.4-4.1-14.3c-1.3-7.2-3.8-9.3-10.9-7.7c-2.4,0.5-4.7,1.6-6.9,2.7
	c-9.6,5-19,10.3-28.6,15.2c-7.6,3.9-9.3,2.5-9.9-6.1c-0.8-9.9,1.9-17.9,8.5-25.5c9.4-10.7,17.9-22.3,26.6-33.7
	c1.3-1.7,2.3-4.2,2.2-6.3c-0.1-16.7-0.3-33.3-0.8-50c-0.3-9.1-2.5-10.6-11.2-8.1c-46.4,13-92.9,26.1-139.3,39.1
	c-1.6,0.4-3.2,1-4.8,1.3c-4.9,1-7.2-0.4-8.2-5.4c-2.3-10.9,1-19.5,10.2-26.1c27.1-19.6,54.1-39.4,81.2-59.2
	c20.7-15.1,41.5-30.2,62.3-45.2c4.9-3.6,7.6-8.3,7.8-14.3c0.6-25,1.1-50,1.9-74.9c0.3-11,0.4-22.1,2.3-32.8
	c1.3-7.1,4.7-14.4,9.1-20.1C190,2.6,205,3,214.6,14.4c6.6,7.8,9.7,17.1,10.1,27.2c0.9,25.3,1.5,50.6,2.2,75.9c0.2,8,0.5,16,0.7,24
	c0.1,6.9,3.1,11.9,8.7,15.9c47.3,34.3,94.5,68.9,141.8,103.2c8.2,6,12.7,13.3,11.8,23.7c-0.7,7.8-3.2,9.8-10.6,7.7
	c-41-11.5-82-23-123-34.5c-6.9-1.9-13.8-3.9-20.7-5.7c-6.9-1.9-9.6,0.1-9.8,7.4C225.5,267.7,225.7,276.2,225.7,286.2z"/>
</svg>
