<?xml version="1.0" encoding="utf-8"?>
<!-- Generator: Adobe Illustrator 22.1.0, SVG Export Plug-In . SVG Version: 6.00 Build 0)  -->
<svg version="1.1" id="Layer_1" xmlns="http://www.w3.org/2000/svg" xmlns:xlink="http://www.w3.org/1999/xlink" x="0px" y="0px"
	 viewBox="0 0 501.7 184.5" style="enable-background:new 0 0 501.7 184.5;" xml:space="preserve">
<style type="text/css">
	.st0{fill:#FFFFFF;}
</style>
<path class="st0" d="M0,56.4c9.8,0,19-0.2,28.1,0.1c1.8,0.1,3.9,1.6,5.3,3C50.2,76.2,66.9,93,83.8,109.6c1.6,1.6,4.2,3,6.3,3
	c33.3,0.2,66.7,0.1,100,0.1c0.9,0,1.8-0.2,3.4-0.4c-37.3-37.2-74.1-74-110.9-110.8C82.8,1,83,0.6,83.2,0.1c2.6,0,5.1,0,7.7,0
	c9.5,0,19,0.5,28.5-0.1s17.6,2,25.9,6.7c61,34.8,122.3,69.2,183.5,103.6c2.5,1.4,5.6,2.2,8.4,2.2c30.3,0.2,60.7,0,91,0.1
	c21.2,0.1,40.7,6.3,58.5,17.6c4.2,2.6,8,6.1,11.3,9.8c5.1,5.7,5.2,10.8,0.2,16.6c-3.1,3.6-6.8,7-10.8,9.6
	c-17.4,11.3-36.5,18-57.3,18c-71.3,0.2-142.7,0.3-214-0.1c-27.8-0.1-55-5.3-82-11.4c-31-6.9-61.7-15.1-92.6-22.5
	c-4.1-1-6.3-2.9-7.9-7C23.1,116.1,12.4,89,1.9,61.9C1.3,60.4,0.8,58.8,0,56.4z"/>
</svg>
