<?xml version="1.0" encoding="utf-8"?>
<!-- Generator: Adobe Illustrator 22.1.0, SVG Export Plug-In . SVG Version: 6.00 Build 0)  -->
<svg version="1.1" id="Layer_1" xmlns="http://www.w3.org/2000/svg" xmlns:xlink="http://www.w3.org/1999/xlink" x="0px" y="0px"
	 viewBox="0 0 501.7 501.7" style="enable-background:new 0 0 501.7 501.7;" xml:space="preserve">
<rect x="64" y="146.2" width="80.3" height="333"/>
<path d="M0,56.6c9.8,0,19-0.2,28.1,0.1c1.8,0.1,3.9,1.6,5.3,3c16.8,16.7,33.5,33.5,50.4,50.1c1.6,1.6,4.2,3,6.3,3
	c33.3,0.2,66.7,0.1,100,0.1c0.9,0,1.8-0.2,3.4-0.4c-37.3-37.2-74.1-74-110.9-110.8c0.2-0.5,0.4-0.9,0.6-1.4c2.6,0,5.1,0,7.7,0
	c9.5,0,19,0.5,28.5-0.1s17.6,2,25.9,6.7c61,34.8,122.3,69.2,183.5,103.6c2.5,1.4,5.6,2.2,8.4,2.2c30.3,0.2,60.7,0,91,0.1
	c21.2,0.1,40.7,6.3,58.5,17.6c4.2,2.6,8,6.1,11.3,9.8c5.1,5.7,5.2,10.8,0.2,16.6c-3.1,3.6-6.8,7-10.8,9.6
	c-17.4,11.3-36.5,18-57.3,18c-71.3,0.2-142.7,0.3-214-0.1c-27.8-0.1-55-5.3-82-11.4c-31-6.9-61.7-15.1-92.6-22.5
	c-4.1-1-6.3-2.9-7.9-7C23.1,116.3,12.4,89.2,1.9,62.1C1.3,60.6,0.8,59,0,56.6z"/>
<path d="M337.2,268c30.3,0.2,60.7,0,91,0.1c21.2,0.1,40.7,6.3,58.5,17.6c4.2,2.6,8,6.1,11.3,9.8c5.1,5.7,5.2,10.8,0.2,16.6
	c-3.1,3.6-6.8,7-10.8,9.6c-17.4,11.3-36.5,18-57.3,18c-71.3,0.2-142.7,0.3-214-0.1c-27.8-0.1-55-5.3-82-11.4
	c-31-6.9-61.7-15.1-92.6-22.5c-4.1-1-6.3-2.9-7.9-7c-10.5-27.1-21.2-54.2-31.7-81.3c-0.6-1.5-1.1-3.1-1.9-5.5c9.8,0,19-0.2,28.1,0.1
	c1.8,0.1,3.9,1.6,5.3,3c16.8,16.7,33.5,33.5,50.4,50.1c1.6,1.6,4.2,3,6.3,3c33.3,0.2,66.7,0.1,100,0.1L337.2,268z"/>
</svg>
